<svg width="18" height="16" viewBox="0 0 18 16" fill="none" xmlns="http://www.w3.org/2000/svg">
<path d="M15.1875 6.625C15.1875 6.80734 15.1151 6.9822 14.9861 7.11114C14.8572 7.24007 14.6823 7.3125 14.5 7.3125H11.0625C10.8802 7.3125 10.7053 7.24007 10.5764 7.11114C10.4474 6.9822 10.375 6.80734 10.375 6.625C10.375 6.44266 10.4474 6.2678 10.5764 6.13886C10.7053 6.00993 10.8802 5.9375 11.0625 5.9375H14.5C14.6823 5.9375 14.8572 6.00993 14.9861 6.13886C15.1151 6.2678 15.1875 6.44266 15.1875 6.625ZM14.5 8.6875H11.0625C10.8802 8.6875 10.7053 8.75993 10.5764 8.88886C10.4474 9.01779 10.375 9.19266 10.375 9.375C10.375 9.55734 10.4474 9.73221 10.5764 9.86114C10.7053 9.99007 10.8802 10.0625 11.0625 10.0625H14.5C14.6823 10.0625 14.8572 9.99007 14.9861 9.86114C15.1151 9.73221 15.1875 9.55734 15.1875 9.375C15.1875 9.19266 15.1151 9.01779 14.9861 8.88886C14.8572 8.75993 14.6823 8.6875 14.5 8.6875ZM9.24406 11.2659C9.26658 11.3533 9.27165 11.4443 9.25899 11.5337C9.24633 11.6231 9.21618 11.7092 9.17027 11.7869C9.12436 11.8647 9.06359 11.9326 8.99142 11.9869C8.91925 12.0411 8.8371 12.0807 8.74966 12.1032C8.66222 12.1257 8.57121 12.1308 8.48181 12.1181C8.39241 12.1054 8.30638 12.0753 8.22863 12.0294C8.15088 11.9835 8.08293 11.9227 8.02867 11.8505C7.97441 11.7784 7.93489 11.6962 7.91237 11.6088C7.7978 11.1661 7.53945 10.7741 7.1779 10.4942C6.81635 10.2143 6.37207 10.0624 5.91484 10.0624C5.45762 10.0624 5.01334 10.2143 4.65179 10.4942C4.29023 10.7741 4.03188 11.1661 3.91731 11.6088C3.89494 11.6963 3.85552 11.7787 3.80131 11.851C3.74709 11.9233 3.67915 11.9842 3.60136 12.0303C3.52357 12.0763 3.43747 12.1065 3.34799 12.1193C3.2585 12.132 3.16738 12.1269 3.07984 12.1044C2.99231 12.0819 2.91007 12.0423 2.83785 11.988C2.76562 11.9336 2.70482 11.8656 2.65893 11.7877C2.61303 11.7098 2.58294 11.6237 2.57038 11.5342C2.55781 11.4447 2.56302 11.3535 2.58571 11.2661C2.79481 10.4528 3.29508 9.74457 3.99165 9.27566C3.60105 8.89349 3.33316 8.40363 3.22217 7.86856C3.11117 7.3335 3.16211 6.7775 3.36847 6.2715C3.57483 5.76551 3.92726 5.33247 4.38079 5.02763C4.83432 4.7228 5.36839 4.56 5.91484 4.56C6.4613 4.56 6.99537 4.7228 7.4489 5.02763C7.90243 5.33247 8.25486 5.76551 8.46122 6.2715C8.66758 6.7775 8.71851 7.3335 8.60752 7.86856C8.49653 8.40363 8.22864 8.89349 7.83804 9.27566C8.53457 9.74453 9.03483 10.4527 9.24398 11.2659H9.24406ZM5.91484 8.6875C6.18679 8.6875 6.45263 8.60686 6.67875 8.45577C6.90487 8.30468 7.08111 8.08994 7.18518 7.83869C7.28925 7.58744 7.31648 7.31097 7.26342 7.04425C7.21037 6.77753 7.07941 6.53253 6.88712 6.34023C6.69482 6.14793 6.44982 6.01697 6.18309 5.96392C5.91637 5.91087 5.6399 5.9381 5.38865 6.04217C5.13741 6.14624 4.92266 6.32247 4.77157 6.54859C4.62049 6.77471 4.53984 7.04055 4.53984 7.3125C4.54025 7.67705 4.68525 8.02655 4.94302 8.28432C5.2008 8.54209 5.5503 8.68709 5.91484 8.6875ZM17.9375 1.8125V14.1875C17.9371 14.552 17.7921 14.9015 17.5343 15.1593C17.2765 15.4171 16.927 15.5621 16.5625 15.5625H1.4375C1.07295 15.5621 0.723454 15.4171 0.46568 15.1593C0.207907 14.9015 0.0629094 14.552 0.0625 14.1875V1.8125C0.0629094 1.44795 0.207907 1.09845 0.46568 0.840681C0.723454 0.582907 1.07295 0.437909 1.4375 0.4375H16.5625C16.927 0.437909 17.2765 0.582907 17.5343 0.840681C17.7921 1.09845 17.9371 1.44795 17.9375 1.8125ZM16.5634 14.1875L16.5625 1.8125H1.4375V14.1875H16.5625H16.5634Z" fill="url(#paint0_linear)"/>
<defs>
<linearGradient id="paint0_linear" x1="9" y1="-9.44005" x2="9" y2="24.6684" gradientUnits="userSpaceOnUse">
<stop offset="0.436593" stop-color="#96FBC4"/>
<stop offset="0.856357" stop-color="#20E2D7"/>
</linearGradient>
</defs>
</svg>
